# xmcd
#
# Track frame offsets:
#	150
#	27166
#	49814
#	68209
#	90185
#	110908
#	147982
#	180215
#	204275
#	222304
#	242868
#	269228
#	291653
#	319187
#
# Disc length: 4683 seconds
#
# Revision: 0
# Processed by: cddbd v1.5.2PL0 Copyright (c) Steve Scherf et al.
# Submitted via: EZCDAudioConverter 5.0.1.1
#
DISCID=db12490e
DTITLE=Blues Company - Old, New, Borrowed But Blues (40th Jubilee Concert)
DYEAR=2016
DGENRE=Blues
TTITLE0=Got To Move On
TTITLE1=Brother, Where Are You
TTITLE2=Move To The Groove
TTITLE3=The River
TTITLE4=Messin' With The Kid
TTITLE5=The Hideaway - Peter Gunn Theme
TTITLE6=	\nBlack Night
TTITLE7=Gangster Of Love
TTITLE8=T's Boogie
TTITLE9=A Little Bit Of That
TTITLE10=Baby, Please Don't Go - I'm A King Bee
TTITLE11=Luka's Lullaby
TTITLE12=Kidney Stew
TTITLE13=Walkin' Blues
EXTD=
EXTT0=
EXTT1=
EXTT2=
EXTT3=
EXTT4=
EXTT5=
EXTT6=
EXTT7=
EXTT8=
EXTT9=
EXTT10=
EXTT11=
EXTT12=
EXTT13=
PLAYORDER=
